<svg id="Camada_1" data-name="Camada 1" xmlns="http://www.w3.org/2000/svg" viewBox="0 0 304.66 304.62"><defs><style>.cls-1{fill:#0a66c2;}.cls-2{fill:#fff;}</style></defs><title>Linkedin</title><path class="cls-1" d="M573.47,426.76c-1,9.29-5.75,16.06-13.71,20.76-4.88,2.88-10.27,3.63-15.76,3.63q-122.49.08-245,0c-6.86,0-13.38-1.32-19-5.62-8.14-6.2-11.11-14.69-11.11-24.52q0-119.65,0-239.33c0-3.66.24-7.33.49-11A26.41,26.41,0,0,1,284,149.18a23.35,23.35,0,0,1,10.58-2.46l255.21-.15c11.34,1,21.87,10.79,23.54,21.85C573.58,169.85,573.47,426.76,573.47,426.76ZM436.55,276.1c0-3.15,0-6.2,0-9.25,0-6.41-3.63-9.54-10.44-9a229.59,229.59,0,0,1-30.25,0c-7-.36-10.46,2.68-10.46,9.23q0,70.88,0,141.75c0,6.82,4.09,10.09,11.68,9.24a147.28,147.28,0,0,1,28.09.06c7.66.61,11.38-2.45,11.38-9.39q0-36.12,0-72.22a51.39,51.39,0,0,1,5.13-22.73c4.9-10.14,14.19-15.38,25.51-14.29,10.76,1,18.09,7.16,20.83,18.3a74.87,74.87,0,0,1,2.25,17c.24,24.47.09,48.94.1,73.41,0,7.88,3.24,10.39,12.13,9.9a210.28,210.28,0,0,1,28.73,0c7.45.61,11.43-2.54,11.4-9.43-.11-28.94-.12-57.89-.57-86.83a94.69,94.69,0,0,0-6.41-34c-5.44-13.57-14.4-23.71-28.43-28.73-11.88-4.25-24.11-4.51-36.46-2.81-13.83,1.9-25.23,8-33.48,19.52C437.18,275.93,436.94,275.94,436.55,276.1ZM312.54,338q0,34.89,0,69.8c0,7.53,3.2,10.53,11.06,10.39,9.37-.16,18.75-.25,28.12,0,8.6.22,11.94-2.78,11.94-11q0-69.2,0-138.4c0-.69,0-1.39,0-2.09-.32-6.32-4.56-9.67-11.51-8.79a99.81,99.81,0,0,1-25.9.14c-9.4-1.25-13.7,1.65-13.7,9.51Q312.52,302.8,312.54,338Zm58.35-125.87a32.9,32.9,0,1,0-65.79-.19c.09,18.9,14.77,32.89,33,33C356.07,245.14,370.87,230.12,370.89,212.12Z" transform="translate(-268.84 -146.57)"/><path class="cls-2" d="M436.55,276.1c.39-.16.63-.17.72-.3,8.25-11.5,19.65-17.62,33.48-19.52,12.35-1.7,24.58-1.44,36.46,2.81,14,5,23,15.16,28.43,28.73a94.69,94.69,0,0,1,6.41,34c.45,28.94.46,57.89.57,86.83,0,6.32-3.31,9.49-9.61,9.5q-16.26,0-32.53,0c-7.37,0-10.12-2.7-10.12-10,0-24.47.14-48.94-.1-73.41a74.87,74.87,0,0,0-2.25-17c-2.74-11.14-10.07-17.26-20.83-18.3-11.32-1.09-20.61,4.15-25.51,14.29a51.39,51.39,0,0,0-5.13,22.73q0,36.11,0,72.22c0,6.35-3.12,9.46-9.52,9.46q-16.11,0-32.23,0c-6.12,0-9.4-3.27-9.4-9.37q0-70.87,0-141.75c0-6.2,3.13-9.26,9.39-9.26h32.83c5.83,0,8.9,3.13,8.93,9.05C436.56,269.9,436.55,273,436.55,276.1Z" transform="translate(-268.84 -146.57)"/><path class="cls-2" d="M312.54,338q0-35.21,0-70.4c0-6.69,3.11-9.79,9.83-9.79q16,0,31.91,0c5.67,0,9.09,3.29,9.37,8.93,0,.7,0,1.4,0,2.09q0,69.21,0,138.4c0,7.89-3.11,11-11,11H323.09c-7.49,0-10.55-3-10.55-10.4Q312.52,372.89,312.54,338Z" transform="translate(-268.84 -146.57)"/><path class="cls-2" d="M370.89,212.12c0,18-14.82,33-32.83,32.86-18.19-.16-32.87-14.15-33-33a32.9,32.9,0,1,1,65.79.19Z" transform="translate(-268.84 -146.57)"/></svg>