<svg id="Camada_1" data-name="Camada 1" xmlns="http://www.w3.org/2000/svg" xmlns:xlink="http://www.w3.org/1999/xlink" viewBox="0 0 511.2 90.7"><defs><style>.cls-1{fill:none;}.cls-2{clip-path:url(#clip-path);}.cls-3{fill:#fff;}.cls-4{fill:url(#Gradiente_sem_nome_5);}.cls-5{fill:url(#Gradiente_sem_nome_5-2);}.cls-6{fill:url(#Gradiente_sem_nome_5-3);}.cls-7{fill:url(#Gradiente_sem_nome_5-4);}.cls-8{fill:url(#Gradiente_sem_nome_5-5);}</style><clipPath id="clip-path" transform="translate(-164.4 -90.65)"><rect class="cls-1" width="840" height="272"/></clipPath><linearGradient id="Gradiente_sem_nome_5" x1="442.44" y1="-444.47" x2="658.09" y2="-524.68" gradientTransform="matrix(1, 0, 0, -1, 0, -319.66)" gradientUnits="userSpaceOnUse"><stop offset="0" stop-color="#eee634"/><stop offset="1" stop-color="#0d172e"/></linearGradient><linearGradient id="Gradiente_sem_nome_5-2" x1="447.75" y1="-430.2" x2="663.4" y2="-510.41" xlink:href="#Gradiente_sem_nome_5"/><linearGradient id="Gradiente_sem_nome_5-3" x1="453.47" y1="-414.81" x2="669.12" y2="-495.03" xlink:href="#Gradiente_sem_nome_5"/><linearGradient id="Gradiente_sem_nome_5-4" x1="457.46" y1="-404.07" x2="673.11" y2="-484.29" xlink:href="#Gradiente_sem_nome_5"/><linearGradient id="Gradiente_sem_nome_5-5" x1="455.47" y1="-409.43" x2="671.12" y2="-489.65" xlink:href="#Gradiente_sem_nome_5"/></defs><title>logo</title><path class="cls-3" d="M439.2,90.65H675.6v90.7H439.2Z" transform="translate(-164.4 -90.65)"/><path class="cls-4" d="M487.9,119.45v35.9a13.06,13.06,0,0,1-1.1,6.1,14.17,14.17,0,0,1-2.9,4.3,12.06,12.06,0,0,1-4.8,2.4,24.67,24.67,0,0,1-6.3.8h-3.2a3,3,0,0,1-1.3-.2c-.5,0-.8-.2-1.1-.2l.5-7.4a3.08,3.08,0,0,1,1.1.2h3.7a9.74,9.74,0,0,0,2.4-.2,6.46,6.46,0,0,0,2.2-1.1,4.31,4.31,0,0,0,1.3-1.9,10.15,10.15,0,0,0,.5-2.9v-28.7h-9.1v-7.4h18.1v.3Zm-8.5-12.3a5.35,5.35,0,0,1,3.7-1.3,5.18,5.18,0,0,1,3.7,1.3,4.08,4.08,0,0,1,1.3,3.5,4.51,4.51,0,0,1-5,4.8,4.51,4.51,0,0,1-5-4.8A4.19,4.19,0,0,1,479.4,107.15Z" transform="translate(-164.4 -90.65)"/><path class="cls-5" d="M525.7,153.15a5.26,5.26,0,0,1-.2-1.9l-1.6,1.6a10.63,10.63,0,0,1-2.2,1.3c-.8.2-1.6.5-2.6.8a8.39,8.39,0,0,1-3.2.2,13.13,13.13,0,0,1-5-.8,11.84,11.84,0,0,1-4-2.2,10.34,10.34,0,0,1-2.6-3.5,11.37,11.37,0,0,1-.8-4.3,8.83,8.83,0,0,1,1.1-5,12.13,12.13,0,0,1,3.5-3.7,19.63,19.63,0,0,1,5-2.2,29.7,29.7,0,0,1,6.9-.8h5v-2.2a7.5,7.5,0,0,0-.2-2.2,2.92,2.92,0,0,0-1.1-1.6,5.67,5.67,0,0,0-2.2-1.1,12.51,12.51,0,0,0-2.9-.5,7.89,7.89,0,0,0-2.4.2,2.16,2.16,0,0,0-1.6,1.1c-.2.2-.8.8-.8,1.3a4.4,4.4,0,0,0-.2,1.6h-9.2a7.3,7.3,0,0,1,1.1-4.3,9.37,9.37,0,0,1,2.9-3.5,13.05,13.05,0,0,1,4.5-2.4,24.67,24.67,0,0,1,6.3-.8,18.72,18.72,0,0,1,5.9.8,12.06,12.06,0,0,1,4.8,2.4,15.76,15.76,0,0,1,3.2,3.7,12,12,0,0,1,1.1,5.3v15.2a34,34,0,0,0,.2,4.8,7.12,7.12,0,0,0,1.1,3.2v.5h-9.1c-.5.1-.5-.4-.7-1Zm-5.6-5.2a11.26,11.26,0,0,0,2.2-.8,15.26,15.26,0,0,0,1.6-1.1,6.34,6.34,0,0,0,1.1-1.3v-6.1h-4.5a14.38,14.38,0,0,0-3.7.5,3.86,3.86,0,0,0-2.4,1.1,4.31,4.31,0,0,0-1.3,1.9,7.85,7.85,0,0,0-.5,2.2,6.48,6.48,0,0,0,.2,1.9,2,2,0,0,0,1.1,1.3,11.94,11.94,0,0,1,1.6.8,6.84,6.84,0,0,0,2.2.2c.8-.2,1.9-.4,2.4-.6Z" transform="translate(-164.4 -90.65)"/><path class="cls-6" d="M542,119.45h9.3l7.7,24.8.5,2.4.5-2.4,7.7-24.8H577l-13.3,35.2h-8.5Z" transform="translate(-164.4 -90.65)"/><path class="cls-7" d="M605.6,153.15a5.26,5.26,0,0,1-.2-1.9l-1.6,1.6a10.63,10.63,0,0,1-2.2,1.3c-.8.2-1.6.5-2.6.8a16.17,16.17,0,0,1-3.2.2,13.13,13.13,0,0,1-5-.8,11.84,11.84,0,0,1-4-2.2,10.34,10.34,0,0,1-2.6-3.5,11.37,11.37,0,0,1-.8-4.3,8.83,8.83,0,0,1,1.1-5,12.13,12.13,0,0,1,3.5-3.7,19.63,19.63,0,0,1,5-2.2,29.7,29.7,0,0,1,6.9-.8h5v-2.2a7.5,7.5,0,0,0-.2-2.2,2.92,2.92,0,0,0-1.1-1.6,5.67,5.67,0,0,0-2.2-1.1,12.51,12.51,0,0,0-2.9-.5,7.56,7.56,0,0,0-2.4.2,2.16,2.16,0,0,0-1.6,1.1c-.2.2-.8.8-.8,1.3a4.4,4.4,0,0,0-.2,1.6h-9.1a7.3,7.3,0,0,1,1.1-4.3,9.37,9.37,0,0,1,2.9-3.5,13.05,13.05,0,0,1,4.5-2.4,24.67,24.67,0,0,1,6.3-.8,18.72,18.72,0,0,1,5.9.8,12.06,12.06,0,0,1,4.8,2.4,15.76,15.76,0,0,1,3.2,3.7,12,12,0,0,1,1.1,5.3v15.2a34,34,0,0,0,.2,4.8,7.12,7.12,0,0,0,1.1,3.2v.5h-9.1c-.6.1-.6-.4-.8-1Zm-5.7-5.2a11.26,11.26,0,0,0,2.2-.8,15.26,15.26,0,0,0,1.6-1.1,6.34,6.34,0,0,0,1.1-1.3v-6.1h-4.5a14.38,14.38,0,0,0-3.7.5,3.86,3.86,0,0,0-2.4,1.1,4.31,4.31,0,0,0-1.3,1.9,7.85,7.85,0,0,0-.5,2.2,6.48,6.48,0,0,0,.2,1.9,2,2,0,0,0,1.1,1.3,11.94,11.94,0,0,1,1.6.8,6.84,6.84,0,0,0,2.2.2,20.76,20.76,0,0,0,2.4-.6Z" transform="translate(-164.4 -90.65)"/><path class="cls-8" d="M624.5,161.75v-7.2h29.6v6.9H624.5Z" transform="translate(-164.4 -90.65)"/><path class="cls-3" d="M180.1,124.65v30.4h11.5v3.5H164.4v-3.5h12V128h-12v-3.5l15.7.2Zm-4.8-10.3a4.13,4.13,0,0,1,.5-1.1c.2-.2.5-.5.8-.5s.8-.2,1.3-.2a3,3,0,0,1,1.3.2,1.58,1.58,0,0,1,.8.5.82.82,0,0,1,.5.8c0,.2.2.8.2,1.1a2.36,2.36,0,0,1-.8,1.9,2.79,2.79,0,0,1-2.2.8,2.61,2.61,0,0,1-2.2-.8c-.6-.6-.5-1.1-.5-1.9C175.3,115.15,175.3,114.85,175.3,114.35Zm26.9,14.2a8.19,8.19,0,0,1,2.6-3.2,7.51,7.51,0,0,1,4.5-1.3,9.78,9.78,0,0,1,2.6.2,6.46,6.46,0,0,1,2.2,1.1c.5.2.8.8,1.3,1.3s.5,1.1.8,1.6a15.26,15.26,0,0,1,1.1-1.6,3.44,3.44,0,0,1,1.6-1.3,5.67,5.67,0,0,1,2.2-1.1,10.57,10.57,0,0,1,2.6-.2,7.71,7.71,0,0,1,3.7.8,5.23,5.23,0,0,1,2.4,1.9,9.53,9.53,0,0,1,1.3,2.9,19.48,19.48,0,0,1,.5,3.7v25h-3.5v-25a8.58,8.58,0,0,0-.2-2.2,3.26,3.26,0,0,0-.8-1.9,2.41,2.41,0,0,0-1.6-1.3,10.27,10.27,0,0,0-2.4-.5,6.33,6.33,0,0,0-2.6.5,8.62,8.62,0,0,0-1.9,1.1,7.64,7.64,0,0,0-1.1,1.6c-.2.5-.8,1.3-.8,1.9v26h-3.5V133a8.58,8.58,0,0,0-.2-2.2,8.35,8.35,0,0,0-.8-1.9,2.41,2.41,0,0,0-1.6-1.3,7.8,7.8,0,0,0-2.4-.5,6.33,6.33,0,0,0-2.6.5,5,5,0,0,0-1.9,1.3,7.64,7.64,0,0,0-1.1,1.6,5.92,5.92,0,0,0-.5,1.9v25.9h-3.5v-33.8h3.5Zm46.1,29.2a19.55,19.55,0,0,1-5-3.5,18.73,18.73,0,0,1-3.2-5.3,18.2,18.2,0,0,1-1.1-6.3v-1.3a16.87,16.87,0,0,1,1.1-6.7,14.42,14.42,0,0,1,3.2-5.3,16.2,16.2,0,0,1,4.8-3.7,10.9,10.9,0,0,1,5.9-1.3,13.5,13.5,0,0,1,5.9,1.3,13.82,13.82,0,0,1,4.3,3.2,12.59,12.59,0,0,1,2.6,5,55.15,55.15,0,0,1,1.1,6.1v2.4H242.6v1.1a13.11,13.11,0,0,0,1.1,5,9.54,9.54,0,0,0,2.4,4,12.47,12.47,0,0,0,3.7,2.9,11.17,11.17,0,0,0,5,1.1,11.61,11.61,0,0,0,9.9-4.6l2.4,1.9a13.06,13.06,0,0,1-5,4.3,15.82,15.82,0,0,1-7.4,1.6C252.3,159.05,250.1,158.75,248.3,157.75Zm1.6-29.6a10,10,0,0,0-3.5,2.4,9.13,9.13,0,0,0-2.4,3.7,23.2,23.2,0,0,0-1.3,4.5H264v-.2a9.84,9.84,0,0,0-.8-4,8,8,0,0,0-2.2-3.5,7,7,0,0,0-3.2-2.4,11.37,11.37,0,0,0-4.3-.8A5.06,5.06,0,0,0,249.9,128.15Zm53.7-4a4.77,4.77,0,0,1,2.4.5l-.5,3.7c-.8-.2-1.6-.2-2.6-.5a13.28,13.28,0,0,0-2.6-.2,20.65,20.65,0,0,0-4.5.5,8.71,8.71,0,0,0-3.7,1.6,8.12,8.12,0,0,0-2.6,2.9,29.84,29.84,0,0,0-1.9,4v21.4h-3.7v-33.6h3.5l.2,5.3v1.6a14.18,14.18,0,0,1,5.3-5.3,15.79,15.79,0,0,1,8-1.9Zm36.3,23.3a6.87,6.87,0,0,0-1.9-1.9,19,19,0,0,0-3.2-1.6,26.19,26.19,0,0,0-4-1.1,28.52,28.52,0,0,1-4.8-1.3,18.39,18.39,0,0,1-4-1.9,12.22,12.22,0,0,1-2.9-2.6,5.8,5.8,0,0,1-1.1-3.7,7,7,0,0,1,1.1-4,7.35,7.35,0,0,1,2.9-2.9,16.55,16.55,0,0,1,4-1.9,15.7,15.7,0,0,1,4.8-.5,13.13,13.13,0,0,1,5,.8,20.8,20.8,0,0,1,4.3,1.9A10,10,0,0,1,343,130a7.67,7.67,0,0,1,1.1,4.3h-3.7a4.52,4.52,0,0,0-.8-2.9,11.45,11.45,0,0,0-2.2-2.2,9.53,9.53,0,0,0-2.9-1.3,21.08,21.08,0,0,0-3.5-.5,16.68,16.68,0,0,0-3.2.2,6.29,6.29,0,0,0-2.9,1.1,7.94,7.94,0,0,0-2.2,1.9,4,4,0,0,0-.8,2.6,3.69,3.69,0,0,0,.8,2.6,6.87,6.87,0,0,0,1.9,1.9,8.57,8.57,0,0,0,3.2,1.3c1.3.2,2.4.5,3.7.8a22.45,22.45,0,0,1,4.8,1.3,18.39,18.39,0,0,1,4,1.9,12.22,12.22,0,0,1,2.9,2.6,6.5,6.5,0,0,1,1.1,4,7,7,0,0,1-1.1,4,9.27,9.27,0,0,1-2.6,2.9,18.87,18.87,0,0,1-4.5,2.2,18.39,18.39,0,0,1-5,.5,15.12,15.12,0,0,1-5.3-.8,12.59,12.59,0,0,1-4.5-2.2,6.86,6.86,0,0,1-2.9-3.2,16.73,16.73,0,0,1-1.3-4.3h3.7a5.82,5.82,0,0,0,1.3,3.5,9.6,9.6,0,0,0,2.4,2.2,24.37,24.37,0,0,0,3.2,1.1,20.55,20.55,0,0,0,3.5.2,19.5,19.5,0,0,0,4.3-.5,8,8,0,0,0,3.5-1.6,6.1,6.1,0,0,0,1.3-1.6,6,6,0,0,0,.5-2.2c-.4-.8-.6-1.6-.9-2.3Zm38.1,8.7c0-.8-.2-1.6-.2-2.6a12,12,0,0,1-2.2,2.4,14.52,14.52,0,0,1-2.9,1.9,24.37,24.37,0,0,1-3.2,1.1,21.75,21.75,0,0,1-3.7.2,11.89,11.89,0,0,1-4.5-.8,10.37,10.37,0,0,1-3.5-1.9,13.24,13.24,0,0,1-2.4-2.9,9.17,9.17,0,0,1-.8-4,10.33,10.33,0,0,1,1.3-5c.8-1.6,2.2-2.4,3.5-3.5a26.15,26.15,0,0,1,5-1.9,20.16,20.16,0,0,1,6.1-.5h7.4v-3.8a6.94,6.94,0,0,0-.8-3.5,5.23,5.23,0,0,0-1.9-2.4c-.8-.5-1.9-1.1-2.9-1.6a8.76,8.76,0,0,0-3.7-.5,12.86,12.86,0,0,0-3.5.5,7.75,7.75,0,0,0-2.9,1.3,7.68,7.68,0,0,0-2.2,2.2,5.74,5.74,0,0,0-.8,2.9h-3.7a10.47,10.47,0,0,1,1.1-4,8,8,0,0,1,2.9-3.2,17.23,17.23,0,0,1,4.3-2.2,16.36,16.36,0,0,1,5-.8,13.13,13.13,0,0,1,5,.8,9.2,9.2,0,0,1,4,2.2,9.41,9.41,0,0,1,2.6,3.5,13.06,13.06,0,0,1,1.1,4.8v16.3a20.55,20.55,0,0,0,.2,3.5,29.92,29.92,0,0,0,.8,3.2v.2h-3.8c-.5-.3-.5-1.1-.7-1.9Zm-8-.8a10.23,10.23,0,0,0,3.2-1.3,10.5,10.5,0,0,0,2.6-2.2,12.42,12.42,0,0,0,1.9-2.6v-7.4h-6.9a28.92,28.92,0,0,0-5.3.5,9.65,9.65,0,0,0-4.3,1.6,5.19,5.19,0,0,0-2.2,2.2,5.26,5.26,0,0,0-.8,3.2,6.33,6.33,0,0,0,.5,2.6,8.23,8.23,0,0,0,1.6,2.2,9.45,9.45,0,0,0,2.4,1.3,12.63,12.63,0,0,0,3.2.5A23.71,23.71,0,0,0,370,155.35Zm8.7-41.2c-.2.8-.8,1.3-1.1,2.2a4.31,4.31,0,0,1-1.9,1.3,10.27,10.27,0,0,1-2.4.5,5.09,5.09,0,0,1-2.2-.5,5.43,5.43,0,0,1-1.9-1.1,15.26,15.26,0,0,1-1.6-1.1,4.94,4.94,0,0,0-1.6-.5c-.5,0-1.1-.2-1.3,0s-.8.2-1.3.2a3.85,3.85,0,0,0-1.6,1.1,2.62,2.62,0,0,0-.5,1.9l-2.4-.2a6.87,6.87,0,0,1,.5-2.4,10.48,10.48,0,0,1,1.3-2.2,4.31,4.31,0,0,1,1.9-1.3,10.27,10.27,0,0,1,2.4-.5,6.87,6.87,0,0,1,2.4.5c.8.3,1.3.8,2.2,1.1a7.24,7.24,0,0,0,1.9,1.1,6,6,0,0,0,2.2.5c.5,0,1.1,0,1.3-.2s.8-.5,1.1-.8a10.55,10.55,0,0,0,.8-1.3,3.69,3.69,0,0,0,.2-1.3l2.4.5a12.09,12.09,0,0,1-.8,2.5Zm14.1,20.5a16.86,16.86,0,0,1,2.9-5.3,12.43,12.43,0,0,1,4.8-3.7,16.11,16.11,0,0,1,6.3-1.3,15.38,15.38,0,0,1,6.3,1.3,14.4,14.4,0,0,1,4.8,3.7,18.27,18.27,0,0,1,2.9,5.3,17.08,17.08,0,0,1,1.1,6.3v1.1a13.92,13.92,0,0,1-1.1,6.3,21,21,0,0,1-2.9,5.3,16.2,16.2,0,0,1-4.8,3.7,12.12,12.12,0,0,1-6.3,1.3,15.74,15.74,0,0,1-6.3-1.3,13.47,13.47,0,0,1-4.8-3.7,14.54,14.54,0,0,1-2.9-5.3,26.84,26.84,0,0,1-1.1-6.3v-.8a18,18,0,0,1,1.1-6.6Zm3.5,12.8a17.12,17.12,0,0,0,2.2,4.5,15,15,0,0,0,3.5,3.2,9,9,0,0,0,4.8,1.1,8.16,8.16,0,0,0,4.8-1.1,13.06,13.06,0,0,0,5.7-7.7,19.84,19.84,0,0,0,.8-5v-1.1a13.13,13.13,0,0,0-.8-5,17.12,17.12,0,0,0-2.2-4.5,15,15,0,0,0-3.5-3.2,9,9,0,0,0-4.8-1.1,8.16,8.16,0,0,0-4.8,1.1,13.37,13.37,0,0,0-3.5,3.2,11.84,11.84,0,0,0-2.2,4.5,19.84,19.84,0,0,0-.8,5v1.1A18.55,18.55,0,0,0,396.3,147.45Z" transform="translate(-164.4 -90.65)"/></svg>