<svg id="Camada_1" data-name="Camada 1" xmlns="http://www.w3.org/2000/svg" xmlns:xlink="http://www.w3.org/1999/xlink" viewBox="0 0 250.49 44.44"><defs><style>.cls-1{fill:none;}.cls-2{clip-path:url(#clip-path);}.cls-3{fill:#fff;}.cls-4{fill:url(#Gradiente_sem_nome_5);}.cls-5{fill:url(#Gradiente_sem_nome_5-2);}.cls-6{fill:url(#Gradiente_sem_nome_5-3);}.cls-7{fill:url(#Gradiente_sem_nome_5-4);}.cls-8{fill:url(#Gradiente_sem_nome_5-5);}</style><clipPath id="clip-path" transform="translate(-294.76 -113.78)"><rect class="cls-1" x="214.2" y="69.36" width="411.6" height="133.28"/></clipPath><linearGradient id="Gradiente_sem_nome_5" x1="430.99" y1="-450.17" x2="536.66" y2="-489.48" gradientTransform="matrix(1, 0, 0, -1, 0, -319.66)" gradientUnits="userSpaceOnUse"><stop offset="0" stop-color="#eee634"/><stop offset="1" stop-color="#0d172e"/></linearGradient><linearGradient id="Gradiente_sem_nome_5-2" x1="433.6" y1="-443.18" x2="539.26" y2="-482.49" xlink:href="#Gradiente_sem_nome_5"/><linearGradient id="Gradiente_sem_nome_5-3" x1="436.4" y1="-435.64" x2="542.07" y2="-474.95" xlink:href="#Gradiente_sem_nome_5"/><linearGradient id="Gradiente_sem_nome_5-4" x1="438.36" y1="-430.38" x2="544.03" y2="-469.69" xlink:href="#Gradiente_sem_nome_5"/><linearGradient id="Gradiente_sem_nome_5-5" x1="437.38" y1="-433.01" x2="543.05" y2="-472.31" xlink:href="#Gradiente_sem_nome_5"/></defs><title>logo</title><path class="cls-3" d="M429.41,113.78H545.24v44.44H429.41Z" transform="translate(-294.76 -113.78)"/><path class="cls-4" d="M453.27,127.89v17.59a6.4,6.4,0,0,1-.54,3,6.94,6.94,0,0,1-1.42,2.11,5.84,5.84,0,0,1-2.35,1.17,11.86,11.86,0,0,1-3.09.4H444.3a1.39,1.39,0,0,1-.63-.1,5.43,5.43,0,0,1-.54-.1l.24-3.63a1.47,1.47,0,0,1,.54.1h1.82a4.63,4.63,0,0,0,1.17-.1,3,3,0,0,0,1.08-.54,2.1,2.1,0,0,0,.64-.93,5.25,5.25,0,0,0,.24-1.42V131.37H444.4v-3.63h8.87v.15Zm-4.16-6a2.61,2.61,0,0,1,1.81-.63,2.54,2.54,0,0,1,1.81.63,2,2,0,0,1,.64,1.72,2.63,2.63,0,0,1-.64,1.71,2.58,2.58,0,0,1-1.81.64,2.22,2.22,0,0,1-2.45-2.35A2.08,2.08,0,0,1,449.11,121.86Z" transform="translate(-294.76 -113.78)"/><path class="cls-5" d="M471.79,144.4a2.78,2.78,0,0,1-.09-.93l-.79.79a5.13,5.13,0,0,1-1.08.63c-.39.1-.78.25-1.27.4a4.25,4.25,0,0,1-1.57.09,6.34,6.34,0,0,1-2.45-.39,5.78,5.78,0,0,1-2-1.08,4.94,4.94,0,0,1-1.27-1.71,5.51,5.51,0,0,1-.4-2.11,4.34,4.34,0,0,1,.54-2.45,6,6,0,0,1,1.72-1.81,9.58,9.58,0,0,1,2.45-1.08,14.86,14.86,0,0,1,3.38-.39h2.45v-1.08a3.64,3.64,0,0,0-.1-1.08,1.43,1.43,0,0,0-.54-.78,2.66,2.66,0,0,0-1.08-.54,6,6,0,0,0-1.42-.25,3.73,3.73,0,0,0-1.17.1,1.09,1.09,0,0,0-.79.54c-.09.1-.39.39-.39.64a2.1,2.1,0,0,0-.1.78h-4.5a3.55,3.55,0,0,1,.53-2.1,4.64,4.64,0,0,1,1.43-1.72,6.42,6.42,0,0,1,2.2-1.18,12.32,12.32,0,0,1,3.09-.39,9.27,9.27,0,0,1,2.89.39,6,6,0,0,1,2.35,1.18,7.76,7.76,0,0,1,1.57,1.81,6,6,0,0,1,.54,2.6v7.45a16.32,16.32,0,0,0,.1,2.35,3.43,3.43,0,0,0,.53,1.57v.24h-4.45c-.25.05-.25-.19-.35-.49Zm-2.74-2.54a5.66,5.66,0,0,0,1.08-.4,6.09,6.09,0,0,0,.78-.54,3,3,0,0,0,.54-.63v-3h-2.2a7.42,7.42,0,0,0-1.82.24,1.89,1.89,0,0,0-1.17.54,2.13,2.13,0,0,0-.64.93,3.87,3.87,0,0,0-.25,1.08,3.08,3.08,0,0,0,.1.93,1,1,0,0,0,.54.64,5.78,5.78,0,0,1,.79.39,3.22,3.22,0,0,0,1.07.1c.4-.1.93-.2,1.18-.29Z" transform="translate(-294.76 -113.78)"/><path class="cls-6" d="M479.78,127.89h4.56L488.11,140l.25,1.18.24-1.18,3.77-12.15h4.56l-6.52,17.25h-4.16Z" transform="translate(-294.76 -113.78)"/><path class="cls-7" d="M510.94,144.4a2.78,2.78,0,0,1-.09-.93l-.79.79a4.89,4.89,0,0,1-1.08.63c-.39.1-.78.25-1.27.4a8.63,8.63,0,0,1-1.57.09,6.34,6.34,0,0,1-2.45-.39,5.78,5.78,0,0,1-2-1.08,4.94,4.94,0,0,1-1.27-1.71,5.51,5.51,0,0,1-.39-2.11,4.34,4.34,0,0,1,.53-2.45,6.08,6.08,0,0,1,1.72-1.81,9.58,9.58,0,0,1,2.45-1.08,14.86,14.86,0,0,1,3.38-.39h2.45v-1.08a3.64,3.64,0,0,0-.1-1.08,1.43,1.43,0,0,0-.54-.78,2.68,2.68,0,0,0-1.07-.54,6.17,6.17,0,0,0-1.43-.25,3.6,3.6,0,0,0-1.17.1,1.09,1.09,0,0,0-.79.54c-.09.1-.39.39-.39.64a2.1,2.1,0,0,0-.1.78h-4.45a3.55,3.55,0,0,1,.53-2.1,4.64,4.64,0,0,1,1.43-1.72,6.42,6.42,0,0,1,2.2-1.18,12.32,12.32,0,0,1,3.09-.39,9.27,9.27,0,0,1,2.89.39,6,6,0,0,1,2.35,1.18,7.76,7.76,0,0,1,1.57,1.81,6,6,0,0,1,.54,2.6v7.45a16.32,16.32,0,0,0,.1,2.35,3.43,3.43,0,0,0,.53,1.57v.24h-4.45c-.3.05-.3-.19-.4-.49Zm-2.79-2.54a5.42,5.42,0,0,0,1.08-.4,6.09,6.09,0,0,0,.78-.54,2.75,2.75,0,0,0,.54-.63v-3h-2.2a7.42,7.42,0,0,0-1.82.24,1.92,1.92,0,0,0-1.17.54,2.13,2.13,0,0,0-.64.93,3.86,3.86,0,0,0-.24,1.08,3.41,3.41,0,0,0,.09.93,1,1,0,0,0,.54.64,5.78,5.78,0,0,1,.79.39,3.26,3.26,0,0,0,1.08.1c.44-.1.93-.2,1.17-.29Z" transform="translate(-294.76 -113.78)"/><path class="cls-8" d="M520.21,148.62v-3.53h14.5v3.38h-14.5Z" transform="translate(-294.76 -113.78)"/><path class="cls-3" d="M302.45,130.44v14.89h5.63v1.72H294.76v-1.72h5.88V132.06h-5.88v-1.72l7.69.1Zm-2.35-5a2.27,2.27,0,0,1,.24-.54c.1-.1.25-.24.39-.24s.4-.1.64-.1a1.43,1.43,0,0,1,.64.1.87.87,0,0,1,.39.24.41.41,0,0,1,.25.39c0,.1.09.4.09.54a1.12,1.12,0,0,1-.39.93,1.35,1.35,0,0,1-1.08.4,1.24,1.24,0,0,1-1.07-.4c-.3-.29-.25-.53-.25-.93C300.1,125.78,300.1,125.64,300.1,125.39Zm13.18,7a3.93,3.93,0,0,1,1.27-1.57,3.72,3.72,0,0,1,2.21-.64,4.65,4.65,0,0,1,1.27.1,3.3,3.3,0,0,1,1.08.54c.24.1.39.39.64.64s.24.54.39.78a7.3,7.3,0,0,1,.54-.78,1.7,1.7,0,0,1,.78-.64,3,3,0,0,1,1.08-.54,5,5,0,0,1,1.27-.1,3.74,3.74,0,0,1,1.82.4,2.49,2.49,0,0,1,1.17.93,4.58,4.58,0,0,1,.64,1.42,9.34,9.34,0,0,1,.24,1.81V147H326V134.7a4.14,4.14,0,0,0-.1-1.08,1.65,1.65,0,0,0-.39-.93,1.17,1.17,0,0,0-.78-.63,5.08,5.08,0,0,0-1.18-.25,3,3,0,0,0-1.27.25c-.4.09-.64.39-.94.53a3.64,3.64,0,0,0-.53.79c-.1.24-.4.64-.4.93v12.74h-1.71V134.51a4.1,4.1,0,0,0-.1-1.08,4,4,0,0,0-.39-.93,1.17,1.17,0,0,0-.79-.64,3.7,3.7,0,0,0-1.17-.25,3.1,3.1,0,0,0-1.28.25,2.47,2.47,0,0,0-.93.64,4.06,4.06,0,0,0-.54.78,3.18,3.18,0,0,0-.24.93V146.9h-1.72V130.34h1.72Zm22.59,14.31a9.41,9.41,0,0,1-2.45-1.72,9.1,9.1,0,0,1-1.57-2.59,9,9,0,0,1-.54-3.09v-.64a8.29,8.29,0,0,1,.54-3.28,7,7,0,0,1,1.57-2.6,7.92,7.92,0,0,1,2.35-1.81,5.32,5.32,0,0,1,2.89-.64,6.68,6.68,0,0,1,5,2.21,6,6,0,0,1,1.27,2.45,26.5,26.5,0,0,1,.54,3v1.17h-12.4v.54a6.48,6.48,0,0,0,.54,2.45,4.76,4.76,0,0,0,1.18,2,6.1,6.1,0,0,0,1.81,1.42,5.53,5.53,0,0,0,2.45.54,5.69,5.69,0,0,0,4.85-2.25l1.18.93a6.33,6.33,0,0,1-2.45,2.1,7.77,7.77,0,0,1-3.63.79A13.44,13.44,0,0,1,335.87,146.66Zm.78-14.51a4.92,4.92,0,0,0-1.71,1.18,4.55,4.55,0,0,0-1.18,1.81,11.92,11.92,0,0,0-.64,2.21h10.44v-.1a4.89,4.89,0,0,0-.39-2,4,4,0,0,0-1.08-1.72,3.42,3.42,0,0,0-1.57-1.17,5.42,5.42,0,0,0-2.1-.39A2.5,2.5,0,0,0,336.65,132.15Zm26.31-2a2.3,2.3,0,0,1,1.18.25l-.24,1.81c-.4-.1-.79-.1-1.28-.24a6.36,6.36,0,0,0-1.27-.1,10.61,10.61,0,0,0-2.21.24,4.31,4.31,0,0,0-1.81.79,3.89,3.89,0,0,0-1.27,1.42,14.32,14.32,0,0,0-.94,2V146.8h-1.81V130.34H355l.09,2.6v.78a7,7,0,0,1,2.6-2.6,7.81,7.81,0,0,1,3.92-.93Zm17.79,11.42a3.29,3.29,0,0,0-.93-.93,8.47,8.47,0,0,0-1.57-.78,11.32,11.32,0,0,0-2-.54,14.66,14.66,0,0,1-2.35-.64,9.53,9.53,0,0,1-2-.93,5.88,5.88,0,0,1-1.42-1.28,2.82,2.82,0,0,1-.54-1.81,3.42,3.42,0,0,1,.54-2,3.53,3.53,0,0,1,1.42-1.42,8.13,8.13,0,0,1,2-.93,7.53,7.53,0,0,1,2.35-.25,6.31,6.31,0,0,1,2.45.4,10,10,0,0,1,2.11.93,4.78,4.78,0,0,1,1.42,1.57,3.74,3.74,0,0,1,.54,2.1H381a2.17,2.17,0,0,0-.4-1.42,5.74,5.74,0,0,0-1.07-1.08,4.67,4.67,0,0,0-1.42-.63,10.19,10.19,0,0,0-1.72-.25,8,8,0,0,0-1.57.1,3,3,0,0,0-1.42.54,4,4,0,0,0-1.08.93,2,2,0,0,0-.39,1.27,1.85,1.85,0,0,0,.39,1.28,3.57,3.57,0,0,0,.93.93,4.45,4.45,0,0,0,1.57.64c.64.09,1.18.24,1.82.39a11.53,11.53,0,0,1,2.35.63,9.08,9.08,0,0,1,2,.94,5.85,5.85,0,0,1,1.42,1.27,3.21,3.21,0,0,1,.54,2,3.42,3.42,0,0,1-.54,2,4.46,4.46,0,0,1-1.28,1.42,9.39,9.39,0,0,1-2.2,1.08,9.21,9.21,0,0,1-2.45.24,7.31,7.31,0,0,1-2.6-.39,6,6,0,0,1-2.2-1.08,3.33,3.33,0,0,1-1.42-1.56,8.18,8.18,0,0,1-.64-2.11h1.81a2.85,2.85,0,0,0,.64,1.71,4.47,4.47,0,0,0,1.18,1.08,11.16,11.16,0,0,0,1.56.54,9.93,9.93,0,0,0,1.72.1,9.46,9.46,0,0,0,2.11-.25,3.85,3.85,0,0,0,1.71-.78,3.1,3.1,0,0,0,.64-.78,2.93,2.93,0,0,0,.24-1.08c-.19-.39-.29-.79-.44-1.13Zm18.67,4.26c0-.39-.1-.78-.1-1.27a5.76,5.76,0,0,1-1.08,1.18,7.41,7.41,0,0,1-1.42.93,13.22,13.22,0,0,1-1.56.54,11.67,11.67,0,0,1-1.82.09,5.69,5.69,0,0,1-2.2-.39,5,5,0,0,1-1.72-.93,6.32,6.32,0,0,1-1.17-1.42,4.43,4.43,0,0,1-.4-2,5.07,5.07,0,0,1,.64-2.45,5.76,5.76,0,0,1,1.72-1.72,13,13,0,0,1,2.45-.93,10,10,0,0,1,3-.24h3.62v-1.86a3.46,3.46,0,0,0-.39-1.72,2.56,2.56,0,0,0-.93-1.17c-.39-.25-.93-.54-1.42-.79a4.4,4.4,0,0,0-1.82-.24,6.2,6.2,0,0,0-1.71.24,4.28,4.28,0,0,0-2.5,1.72,2.85,2.85,0,0,0-.39,1.42H388.4a5.14,5.14,0,0,1,.53-2,3.92,3.92,0,0,1,1.43-1.57,8.55,8.55,0,0,1,2.1-1.08,8.21,8.21,0,0,1,2.45-.39,6.5,6.5,0,0,1,2.45.39,4.52,4.52,0,0,1,2,1.08,4.71,4.71,0,0,1,1.28,1.71,6.57,6.57,0,0,1,.54,2.36v8a11,11,0,0,0,.09,1.72,14.4,14.4,0,0,0,.4,1.57v.09h-1.87c-.24-.14-.24-.53-.34-.93Zm-3.92-.39a4.93,4.93,0,0,0,1.57-.64,5,5,0,0,0,1.27-1.07,6.26,6.26,0,0,0,.93-1.28v-3.62h-3.38a13.83,13.83,0,0,0-2.59.24,4.65,4.65,0,0,0-2.11.79,2.48,2.48,0,0,0-1.08,1.07,2.62,2.62,0,0,0-.39,1.57,3.28,3.28,0,0,0,.24,1.28,4,4,0,0,0,.79,1.07,4.52,4.52,0,0,0,1.17.64,6.13,6.13,0,0,0,1.57.25A11.51,11.51,0,0,0,395.5,145.48Zm4.26-20.19c-.09.4-.39.64-.54,1.08a2.07,2.07,0,0,1-.93.64,4.87,4.87,0,0,1-1.17.24A2.45,2.45,0,0,1,396,127a2.68,2.68,0,0,1-.93-.54,7.4,7.4,0,0,1-.79-.54,2.27,2.27,0,0,0-.78-.24c-.24,0-.54-.1-.64,0s-.39.09-.63.09a2,2,0,0,0-.79.54,1.31,1.31,0,0,0-.24.93l-1.18-.09a3.29,3.29,0,0,1,.25-1.18c.09-.39.39-.64.63-1.08a2.22,2.22,0,0,1,.93-.64,5.62,5.62,0,0,1,1.18-.24,3.6,3.6,0,0,1,1.18.24c.39.15.63.4,1.07.54a3.37,3.37,0,0,0,.93.54,2.91,2.91,0,0,0,1.08.25c.25,0,.54,0,.64-.1s.39-.25.54-.39a5.18,5.18,0,0,0,.39-.64,1.77,1.77,0,0,0,.1-.64l1.17.25a5.24,5.24,0,0,1-.39,1.22Zm6.91,10a8.42,8.42,0,0,1,1.42-2.6,6.08,6.08,0,0,1,2.36-1.81,7.92,7.92,0,0,1,3.08-.64,7.56,7.56,0,0,1,3.09.64,7.13,7.13,0,0,1,2.35,1.81,8.92,8.92,0,0,1,1.42,2.6,8.42,8.42,0,0,1,.54,3.09V139a6.83,6.83,0,0,1-.54,3.09,10.26,10.26,0,0,1-1.42,2.6,8.05,8.05,0,0,1-2.35,1.81,5.93,5.93,0,0,1-3.09.64,7.73,7.73,0,0,1-3.08-.64,6.6,6.6,0,0,1-2.36-1.81,7.38,7.38,0,0,1-1.42-2.6,13.43,13.43,0,0,1-.54-3.09v-.39a8.84,8.84,0,0,1,.54-3.23Zm1.72,6.27a8.11,8.11,0,0,0,1.08,2.21,7.15,7.15,0,0,0,1.71,1.56,4.33,4.33,0,0,0,2.35.54,4,4,0,0,0,2.35-.54,5.82,5.82,0,0,0,1.72-1.56,5.93,5.93,0,0,0,1.08-2.21,9.9,9.9,0,0,0,.39-2.45v-.54a6.53,6.53,0,0,0-.39-2.45,8.5,8.5,0,0,0-1.08-2.2,7.21,7.21,0,0,0-1.72-1.57,4.4,4.4,0,0,0-2.35-.54,4,4,0,0,0-2.35.54,6.41,6.41,0,0,0-1.71,1.57,5.67,5.67,0,0,0-1.08,2.2,9.51,9.51,0,0,0-.39,2.45v.54A8.85,8.85,0,0,0,408.39,141.61Z" transform="translate(-294.76 -113.78)"/></svg>